<svg xmlns="http://www.w3.org/2000/svg" xmlns:xlink="http://www.w3.org/1999/xlink" version="1.1" width="256" height="256" viewBox="0 0 256 256" xml:space="preserve">

<defs>
</defs>
<g style="stroke: none; stroke-width: 0; stroke-dasharray: none; stroke-linecap: butt; stroke-linejoin: miter; stroke-miterlimit: 10; fill: none; fill-rule: nonzero; opacity: 1;" transform="translate(1.4065934065934016 1.4065934065934016) scale(2.81 2.81)" >
	<path d="M 9.583 73.639 v 12.984 c 0 1.313 1.064 2.377 2.377 2.377 h 10.481 c 1.313 0 2.377 -1.064 2.377 -2.377 V 73.639 H 9.583 z" style="stroke: none; stroke-width: 1; stroke-dasharray: none; stroke-linecap: butt; stroke-linejoin: miter; stroke-miterlimit: 10; fill: rgb(47,72,89); fill-rule: nonzero; opacity: 1;" transform=" matrix(1 0 0 1 0 0) " stroke-linecap="round" />
	<path d="M 65.122 73.639 v 12.984 c 0 1.313 1.064 2.377 2.377 2.377 H 77.98 c 1.313 0 2.377 -1.064 2.377 -2.377 V 73.639 H 65.122 z" style="stroke: none; stroke-width: 1; stroke-dasharray: none; stroke-linecap: butt; stroke-linejoin: miter; stroke-miterlimit: 10; fill: rgb(47,72,89); fill-rule: nonzero; opacity: 1;" transform=" matrix(1 0 0 1 0 0) " stroke-linecap="round" />
	<path d="M 80.75 73.986 l 0.434 -7.842 c 0.28 -5.066 -1.56 -10.02 -5.08 -13.675 l -4.011 -4.165 l -4.738 -11.837 c -0.692 -1.728 -2.263 -2.963 -4.111 -3.181 c -12.182 -1.44 -24.365 -1.44 -36.547 0 c -1.848 0.219 -3.419 1.454 -4.111 3.181 l -4.738 11.837 l -4.011 4.166 c -3.519 3.655 -5.36 8.609 -5.08 13.675 l 0.434 7.842 c 0.221 3.989 3.519 7.111 7.515 7.111 h 56.531 C 77.23 81.097 80.529 77.975 80.75 73.986 z" style="stroke: none; stroke-width: 1; stroke-dasharray: none; stroke-linecap: butt; stroke-linejoin: miter; stroke-miterlimit: 10; fill: rgb(247,62,62); fill-rule: nonzero; opacity: 1;" transform=" matrix(1 0 0 1 0 0) " stroke-linecap="round" />
	<path d="M 72.092 48.304 l -4.738 -11.837 c -0.692 -1.728 -2.263 -2.963 -4.111 -3.181 c -12.182 -1.44 -24.365 -1.44 -36.547 0 c -1.848 0.219 -3.419 1.454 -4.111 3.181 l -4.738 11.837 l 0 0 C 35.929 47.344 54.011 47.344 72.092 48.304 L 72.092 48.304 z" style="stroke: none; stroke-width: 1; stroke-dasharray: none; stroke-linecap: butt; stroke-linejoin: miter; stroke-miterlimit: 10; fill: rgb(47,72,89); fill-rule: nonzero; opacity: 1;" transform=" matrix(1 0 0 1 0 0) " stroke-linecap="round" />
	<path d="M 72.041 49.3 c -17.962 -0.955 -36.179 -0.955 -54.142 0 l -0.106 -1.998 c 18.034 -0.957 36.321 -0.957 54.354 0 L 72.041 49.3 z" style="stroke: none; stroke-width: 1; stroke-dasharray: none; stroke-linecap: butt; stroke-linejoin: miter; stroke-miterlimit: 10; fill: rgb(0,0,0); fill-rule: nonzero; opacity: 1;" transform=" matrix(1 0 0 1 0 0) " stroke-linecap="round" />
	<path d="M 22.439 90 H 11.957 c -1.862 0 -3.376 -1.515 -3.376 -3.377 V 76.009 c 0 -0.553 0.448 -1 1 -1 s 1 0.447 1 1 v 10.614 c 0 0.759 0.618 1.377 1.376 1.377 h 10.482 c 0.759 0 1.376 -0.618 1.376 -1.377 v -5.526 c 0 -0.553 0.448 -1 1 -1 s 1 0.447 1 1 v 5.526 C 25.816 88.485 24.301 90 22.439 90 z" style="stroke: none; stroke-width: 1; stroke-dasharray: none; stroke-linecap: butt; stroke-linejoin: miter; stroke-miterlimit: 10; fill: rgb(0,0,0); fill-rule: nonzero; opacity: 1;" transform=" matrix(1 0 0 1 0 0) " stroke-linecap="round" />
	<path d="M 77.982 90 H 67.5 c -1.861 0 -3.376 -1.515 -3.376 -3.377 v -5.304 c 0 -0.553 0.447 -1 1 -1 s 1 0.447 1 1 v 5.304 c 0 0.759 0.617 1.377 1.376 1.377 h 10.482 c 0.759 0 1.377 -0.618 1.377 -1.377 V 76 c 0 -0.553 0.447 -1 1 -1 s 1 0.447 1 1 v 10.623 C 81.359 88.485 79.845 90 77.982 90 z" style="stroke: none; stroke-width: 1; stroke-dasharray: none; stroke-linecap: butt; stroke-linejoin: miter; stroke-miterlimit: 10; fill: rgb(0,0,0); fill-rule: nonzero; opacity: 1;" transform=" matrix(1 0 0 1 0 0) " stroke-linecap="round" />
	<path d="M 73.237 82.097 H 16.703 c -4.524 0 -8.264 -3.539 -8.514 -8.057 l -0.434 -7.842 c -0.294 -5.326 1.659 -10.584 5.358 -14.425 l 3.876 -4.025 l 4.666 -11.657 c 0.834 -2.085 2.721 -3.542 4.922 -3.803 c 12.204 -1.442 24.581 -1.442 36.785 0 c 2.201 0.261 4.087 1.718 4.922 3.803 l 4.665 11.657 l 3.877 4.025 c 3.699 3.84 5.652 9.098 5.357 14.425 l -0.434 7.843 V 74.04 C 81.502 78.558 77.762 82.097 73.237 82.097 z M 44.97 33.206 c -6.067 0 -12.133 0.356 -18.158 1.068 c -1.473 0.174 -2.738 1.155 -3.3 2.56 l -4.811 12.02 l -4.147 4.307 c -3.315 3.442 -5.066 8.154 -4.802 12.927 l 0.434 7.843 c 0.191 3.458 3.053 6.167 6.517 6.167 h 56.535 c 3.464 0 6.326 -2.709 6.517 -6.166 V 73.93 l 0.434 -7.843 c 0.264 -4.773 -1.486 -9.484 -4.802 -12.927 l -4.147 -4.307 l -0.073 -0.181 l -4.738 -11.839 c -0.562 -1.405 -1.826 -2.386 -3.299 -2.56 C 57.104 33.562 51.036 33.206 44.97 33.206 z" style="stroke: none; stroke-width: 1; stroke-dasharray: none; stroke-linecap: butt; stroke-linejoin: miter; stroke-miterlimit: 10; fill: rgb(0,0,0); fill-rule: nonzero; opacity: 1;" transform=" matrix(1 0 0 1 0 0) " stroke-linecap="round" />
	<path d="M 20.967 75.67 h -2.994 c -0.552 0 -1 -0.447 -1 -1 s 0.448 -1 1 -1 h 2.994 c 0.552 0 1 0.447 1 1 S 21.519 75.67 20.967 75.67 z" style="stroke: none; stroke-width: 1; stroke-dasharray: none; stroke-linecap: butt; stroke-linejoin: miter; stroke-miterlimit: 10; fill: rgb(0,0,0); fill-rule: nonzero; opacity: 1;" transform=" matrix(1 0 0 1 0 0) " stroke-linecap="round" />
	<path d="M 71.973 75.67 h -3.006 c -0.553 0 -1 -0.447 -1 -1 s 0.447 -1 1 -1 h 3.006 c 0.553 0 1 0.447 1 1 S 72.525 75.67 71.973 75.67 z" style="stroke: none; stroke-width: 1; stroke-dasharray: none; stroke-linecap: butt; stroke-linejoin: miter; stroke-miterlimit: 10; fill: rgb(0,0,0); fill-rule: nonzero; opacity: 1;" transform=" matrix(1 0 0 1 0 0) " stroke-linecap="round" />
	<path d="M 55.331 75.109 H 34.609 c -0.892 0 -1.708 -0.504 -2.107 -1.302 l -0.645 -1.29 c -0.783 -1.566 0.356 -3.408 2.107 -3.408 h 22.011 c 1.751 0 2.89 1.842 2.107 3.408 l -0.645 1.29 C 57.038 74.605 56.223 75.109 55.331 75.109 z" style="stroke: none; stroke-width: 1; stroke-dasharray: none; stroke-linecap: butt; stroke-linejoin: miter; stroke-miterlimit: 10; fill: rgb(47,72,89); fill-rule: nonzero; opacity: 1;" transform=" matrix(1 0 0 1 0 0) " stroke-linecap="round" />
	<path d="M 55.331 76.109 H 34.609 c -1.279 0 -2.429 -0.711 -3.001 -1.854 l -0.645 -1.29 c -0.523 -1.048 -0.469 -2.269 0.147 -3.265 c 0.616 -0.996 1.683 -1.591 2.854 -1.591 h 22.011 c 1.172 0 2.238 0.595 2.854 1.591 c 0.615 0.996 0.67 2.217 0.146 3.265 l -0.645 1.29 C 57.759 75.398 56.609 76.109 55.331 76.109 z M 33.964 70.109 c -0.48 0 -0.9 0.234 -1.153 0.643 s -0.274 0.889 -0.06 1.318 l 0.645 1.29 c 0.231 0.462 0.695 0.749 1.212 0.749 h 20.722 c 0.517 0 0.98 -0.287 1.212 -0.749 l 0.645 -1.29 c 0.215 -0.43 0.193 -0.91 -0.059 -1.318 c -0.253 -0.408 -0.673 -0.643 -1.153 -0.643 H 33.964 z" style="stroke: none; stroke-width: 1; stroke-dasharray: none; stroke-linecap: butt; stroke-linejoin: miter; stroke-miterlimit: 10; fill: rgb(0,0,0); fill-rule: nonzero; opacity: 1;" transform=" matrix(1 0 0 1 0 0) " stroke-linecap="round" />
	<path d="M 17.321 61.273 l 7.801 2.071 c 1.285 0.341 2.18 1.504 2.18 2.834 v 0 c 0 1.619 -1.313 2.932 -2.932 2.932 h -7.801 c -1.619 0 -2.932 -1.313 -2.932 -2.932 v -2.071 C 13.637 62.181 15.461 60.779 17.321 61.273 z" style="stroke: none; stroke-width: 1; stroke-dasharray: none; stroke-linecap: butt; stroke-linejoin: miter; stroke-miterlimit: 10; fill: rgb(230,246,255); fill-rule: nonzero; opacity: 1;" transform=" matrix(1 0 0 1 0 0) " stroke-linecap="round" />
	<path d="M 72.618 61.273 l -7.801 2.071 c -1.285 0.341 -2.18 1.504 -2.18 2.834 v 0 c 0 1.619 1.313 2.932 2.932 2.932 h 7.801 c 1.619 0 2.932 -1.313 2.932 -2.932 v -2.071 C 76.303 62.181 74.479 60.779 72.618 61.273 z" style="stroke: none; stroke-width: 1; stroke-dasharray: none; stroke-linecap: butt; stroke-linejoin: miter; stroke-miterlimit: 10; fill: rgb(230,246,255); fill-rule: nonzero; opacity: 1;" transform=" matrix(1 0 0 1 0 0) " stroke-linecap="round" />
	<path d="M 24.371 70.109 h -7.801 c -2.168 0 -3.932 -1.765 -3.932 -3.933 v -2.07 c 0 -1.23 0.56 -2.367 1.535 -3.117 s 2.217 -1 3.406 -0.684 l 7.801 2.07 c 1.722 0.458 2.924 2.021 2.924 3.801 C 28.303 68.345 26.539 70.109 24.371 70.109 z M 16.564 62.173 c -0.42 0 -0.83 0.138 -1.173 0.402 c -0.479 0.368 -0.754 0.927 -0.754 1.531 v 2.07 c 0 1.065 0.867 1.933 1.932 1.933 h 7.801 c 1.065 0 1.932 -0.867 1.932 -1.933 c 0 -0.875 -0.591 -1.643 -1.437 -1.867 l -7.801 -2.07 C 16.899 62.195 16.73 62.173 16.564 62.173 z" style="stroke: none; stroke-width: 1; stroke-dasharray: none; stroke-linecap: butt; stroke-linejoin: miter; stroke-miterlimit: 10; fill: rgb(0,0,0); fill-rule: nonzero; opacity: 1;" transform=" matrix(1 0 0 1 0 0) " stroke-linecap="round" />
	<path d="M 73.371 70.109 h -7.802 c -2.168 0 -3.933 -1.765 -3.933 -3.933 c 0 -1.78 1.202 -3.343 2.924 -3.801 l 7.801 -2.07 c 1.188 -0.318 2.431 -0.067 3.406 0.684 s 1.535 1.887 1.535 3.117 v 2.07 C 77.303 68.345 75.539 70.109 73.371 70.109 z M 73.375 62.173 c -0.166 0 -0.334 0.022 -0.5 0.066 l -7.801 2.07 c -0.847 0.225 -1.438 0.993 -1.438 1.867 c 0 1.065 0.867 1.933 1.933 1.933 h 7.802 c 1.065 0 1.932 -0.867 1.932 -1.933 v -2.07 c 0 -0.604 -0.274 -1.163 -0.754 -1.531 C 74.205 62.311 73.795 62.173 73.375 62.173 z" style="stroke: none; stroke-width: 1; stroke-dasharray: none; stroke-linecap: butt; stroke-linejoin: miter; stroke-miterlimit: 10; fill: rgb(0,0,0); fill-rule: nonzero; opacity: 1;" transform=" matrix(1 0 0 1 0 0) " stroke-linecap="round" />
	<polygon points="49.65,18.09 49.65,1 33.19,1 33.19,18.09 30.17,20.55 30.17,26.09 52.67,26.09 52.67,20.55 " style="stroke: none; stroke-width: 1; stroke-dasharray: none; stroke-linecap: butt; stroke-linejoin: miter; stroke-miterlimit: 10; fill: rgb(255,203,36); fill-rule: nonzero; opacity: 1;" transform="  matrix(1 0 0 1 0 0) "/>
	<rect x="37.55" y="5.25" rx="0" ry="0" width="7.74" height="5.26" style="stroke: none; stroke-width: 1; stroke-dasharray: none; stroke-linecap: butt; stroke-linejoin: miter; stroke-miterlimit: 10; fill: rgb(230,246,255); fill-rule: nonzero; opacity: 1;" transform=" matrix(1 0 0 1 0 0) "/>
	<path d="M 52.67 27.085 H 30.166 c -0.552 0 -1 -0.448 -1 -1 v -5.531 c 0 -0.3 0.135 -0.585 0.368 -0.774 l 2.651 -2.165 V 1 c 0 -0.552 0.448 -1 1 -1 H 49.65 c 0.553 0 1 0.448 1 1 v 16.616 l 2.651 2.164 c 0.233 0.19 0.368 0.475 0.368 0.775 v 5.531 C 53.67 26.638 53.223 27.085 52.67 27.085 z M 31.166 25.085 H 51.67 v -4.056 l -2.651 -2.164 c -0.233 -0.19 -0.368 -0.475 -0.368 -0.775 V 2 H 34.185 v 16.09 c 0 0.3 -0.135 0.584 -0.368 0.774 l -2.651 2.165 V 25.085 z" style="stroke: none; stroke-width: 1; stroke-dasharray: none; stroke-linecap: butt; stroke-linejoin: miter; stroke-miterlimit: 10; fill: rgb(0,0,0); fill-rule: nonzero; opacity: 1;" transform=" matrix(1 0 0 1 0 0) " stroke-linecap="round" />
	<path d="M 45.289 11.514 h -7.743 c -0.552 0 -1 -0.448 -1 -1 V 5.249 c 0 -0.552 0.448 -1 1 -1 h 7.743 c 0.552 0 1 0.448 1 1 v 5.265 C 46.289 11.066 45.841 11.514 45.289 11.514 z M 38.546 9.514 h 5.743 V 6.249 h -5.743 V 9.514 z" style="stroke: none; stroke-width: 1; stroke-dasharray: none; stroke-linecap: butt; stroke-linejoin: miter; stroke-miterlimit: 10; fill: rgb(0,0,0); fill-rule: nonzero; opacity: 1;" transform=" matrix(1 0 0 1 0 0) " stroke-linecap="round" />
	<path d="M 57.309 17.887 c -1.943 0 -3.524 -1.581 -3.524 -3.525 v -3.956 c 0 -0.841 -0.685 -1.525 -1.525 -1.525 H 49.65 c -0.553 0 -1 -0.448 -1 -1 s 0.447 -1 1 -1 h 2.608 c 1.944 0 3.525 1.581 3.525 3.525 v 3.956 c 0 0.841 0.684 1.525 1.524 1.525 s 1.525 -0.684 1.525 -1.525 V 5.329 l -3.53 -3.632 c -0.385 -0.396 -0.376 -1.029 0.02 -1.414 c 0.396 -0.384 1.031 -0.376 1.414 0.021 l 3.813 3.923 c 0.182 0.187 0.283 0.437 0.283 0.697 v 9.439 C 60.834 16.306 59.253 17.887 57.309 17.887 z" style="stroke: none; stroke-width: 1; stroke-dasharray: none; stroke-linecap: butt; stroke-linejoin: miter; stroke-miterlimit: 10; fill: rgb(0,0,0); fill-rule: nonzero; opacity: 1;" transform=" matrix(1 0 0 1 0 0) " stroke-linecap="round" />
	<path d="M 59.835 9.636 c -0.021 0 -0.041 0 -0.062 -0.002 c -2.426 -0.146 -4.326 -2.167 -4.326 -4.599 c 0 -1.217 0.47 -2.364 1.323 -3.231 c 0.388 -0.394 1.021 -0.399 1.414 -0.011 s 0.399 1.021 0.012 1.415 c -0.483 0.49 -0.749 1.14 -0.749 1.828 c 0 1.376 1.075 2.52 2.447 2.603 c 0.551 0.033 0.971 0.507 0.938 1.059 C 60.8 9.227 60.359 9.636 59.835 9.636 z" style="stroke: none; stroke-width: 1; stroke-dasharray: none; stroke-linecap: butt; stroke-linejoin: miter; stroke-miterlimit: 10; fill: rgb(0,0,0); fill-rule: nonzero; opacity: 1;" transform=" matrix(1 0 0 1 0 0) " stroke-linecap="round" />
</g>
</svg>